<svg xmlns="http://www.w3.org/2000/svg" viewBox="0 0 75 75"><defs><style>.cls-1,.cls-7{fill:#699;}.cls-1{fill-opacity:0.5;opacity:0.95;}.cls-2{fill:none;stroke-linecap:round;}.cls-2,.cls-3{stroke:#366;stroke-miterlimit:10;stroke-width:4px;}.cls-3,.cls-6{fill:#cf9;}.cls-4{fill:#e0ffc2;}.cls-4,.cls-5,.cls-6,.cls-7,.cls-8{opacity:0.25;}.cls-5{fill:#85adad;}.cls-8{fill:#d6ffad;}</style></defs><title>logo</title><g id="Layer_1" data-name="Layer 1"><path id="outer-triangle" class="cls-1" d="M67.26,34,28.46,11.74a4,4,0,0,0-6,3.47V59.79a4,4,0,0,0,6,3.47L67.26,41A4,4,0,0,0,67.26,34Z"/><line class="cls-2" x1="56.32" y1="66.71" x2="44.88" y2="46.9"/><line class="cls-2" x1="56.32" y1="8.3" x2="44.88" y2="28.1"/><line class="cls-2" x1="28.6" y1="37.5" x2="5.73" y2="37.5"/><polygon id="inner-triangle" class="cls-3" points="61.17 37.5 28.6 18.7 28.6 56.3 61.17 37.5"/><polygon class="cls-4" points="61.16 37.5 39.45 37.5 44.88 28.1 61.16 37.5"/><polygon class="cls-5" points="61.16 37.5 44.88 46.9 39.45 37.5 39.45 37.5 61.16 37.5"/><polygon class="cls-6" points="44.88 46.9 28.6 56.3 39.45 37.5 44.88 46.9"/><polygon class="cls-7" points="39.45 37.5 39.45 37.5 28.6 56.3 28.6 37.5 39.45 37.5"/><polygon class="cls-8" points="39.45 37.5 28.6 37.5 28.6 18.7 39.45 37.5"/><polygon class="cls-7" points="44.88 28.1 39.45 37.5 28.6 18.7 44.88 28.1"/></g></svg>