<svg xmlns="http://www.w3.org/2000/svg" viewBox="0 0 309.9 322.3" width="250" height="250"><defs><style>.cls-1,.cls-2{fill:none;stroke:#009245;stroke-width:9px;}.cls-1{stroke-miterlimit:10;}.cls-2{stroke-linecap:round;stroke-linejoin:round;}.cls-3{fill:#29abe2;}</style></defs><title>ui-guide</title><g id="Layer_2" data-name="Layer 2"><path class="cls-1" d="M136.49,117.74l185.8,62.79a10,10,0,0,1,3.87,16.54L202,321.21a10,10,0,0,1-16.57-3.94L123.79,130.34A10,10,0,0,1,136.49,117.74Z" transform="translate(-70.05 -63.85)"/><line class="cls-2" x1="194.67" y1="194.67" x2="268.17" y2="268.17"/></g><g id="Layer_1" data-name="Layer 1"><polygon class="cls-3" points="293.44 95.9 269.05 121 244.3 145.74 194.81 195.23 145.32 244.72 120.58 269.46 95.48 293.85 119.87 268.75 144.62 244.01 194.1 194.52 243.59 145.03 268.34 120.29 293.44 95.9"/><polygon class="cls-3" points="34.84 9.21 48.37 48.19 61.41 87.32 87.5 165.59 113.59 243.87 126.64 283 139.21 322.3 125.69 283.32 112.64 244.18 86.55 165.91 60.46 87.64 47.41 48.5 34.84 9.21"/><polygon class="cls-3" points="309.9 135.08 271.69 122.87 233.65 110.18 157.54 84.82 81.44 59.45 43.39 46.77 5.5 33.61 43.71 45.82 81.76 58.5 157.86 83.87 233.96 109.24 272.01 121.92 309.9 135.08"/><polygon class="cls-3" points="0 0 37.91 37.2 75.47 74.76 150.59 149.88 225.71 225 263.26 262.56 300.47 300.47 262.56 263.26 225 225.71 149.88 150.59 74.76 75.47 37.2 37.91 0 0"/><path class="cls-3" d="M152.16,77.06c-2.78,3.07-5.61,6.09-8.42,9.13L135,95,117.4,112.53,99.84,130.09l-8.78,8.78c-3,2.81-6.06,5.64-9.13,8.43,2.78-3.07,5.62-6.09,8.43-9.13l8.78-8.78,17.56-17.56,17.56-17.56L143,85.49C146.07,82.68,149.09,79.84,152.16,77.06Z" transform="translate(-70.05 -63.85)"/></g></svg>
